<svg width="31" height="31" viewBox="0 0 31 31" fill="none" xmlns="http://www.w3.org/2000/svg">
<rect x="0.0236816" y="0.5" width="30.0589" height="30" rx="5" fill="#2B2C2F"/>
<g filter="url(#filter0_d_79_312)">
<path d="M15.1716 9.02997C11.3579 12.161 13.587 15.2735 15.1715 16.858C10.2891 14.4921 7.62352 11.227 10.1863 7.81352C13.0967 3.93704 17.6237 5.16311 18.284 5.25743C16.7749 5.25743 15.9261 5.35174 15.1716 5.63469C14.4734 5.89653 12.3802 7.49089 18.0369 6.54452C21.3962 5.98252 22.5279 7.04939 22.9995 7.81352C22.0316 6.9962 19.5022 5.4746 15.1716 9.02997Z" fill="url(#paint0_linear_79_312)"/>
<path d="M13.9385 19.9936C19.1781 17.4203 17.8234 13.1737 16.4911 11.372C20.9693 14.435 22.6361 18.3247 19.9823 21.668C17.8593 24.3426 13.4129 25.2939 11.8137 25.1777C12.9878 25.1795 13.8417 24.8507 14.5191 24.5389C15.1965 24.2272 17.0477 22.1773 11.3132 22.2754C6.72555 22.3539 4.93625 19.983 4.70354 19.3102C5.53969 20.2618 8.69886 22.5668 13.9385 19.9936Z" fill="url(#paint1_linear_79_312)"/>
</g>
<defs>
<filter id="filter0_d_79_312" x="0.481361" y="0.777748" width="26.7404" height="28.6315" filterUnits="userSpaceOnUse" color-interpolation-filters="sRGB">
<feFlood flood-opacity="0" result="BackgroundImageFix"/>
<feColorMatrix in="SourceAlpha" type="matrix" values="0 0 0 0 0 0 0 0 0 0 0 0 0 0 0 0 0 0 127 0" result="hardAlpha"/>
<feOffset/>
<feGaussianBlur stdDeviation="2.11113"/>
<feComposite in2="hardAlpha" operator="out"/>
<feColorMatrix type="matrix" values="0 0 0 0 0.152941 0 0 0 0 0.952941 0 0 0 0 0.811765 0 0 0 1 0"/>
<feBlend mode="normal" in2="BackgroundImageFix" result="effect1_dropShadow_79_312"/>
<feBlend mode="normal" in="SourceGraphic" in2="effect1_dropShadow_79_312" result="shape"/>
</filter>
<linearGradient id="paint0_linear_79_312" x1="9.19434" y1="5" x2="23.5825" y2="5.75562" gradientUnits="userSpaceOnUse">
<stop stop-color="#0DEFE1"/>
<stop offset="1" stop-color="#78FF96"/>
</linearGradient>
<linearGradient id="paint1_linear_79_312" x1="20.0879" y1="26.4169" x2="3.44667" y2="23.0475" gradientUnits="userSpaceOnUse">
<stop stop-color="#0DEFE1"/>
<stop offset="1" stop-color="#78FF96"/>
</linearGradient>
</defs>
</svg>
