<svg width="23" height="23" viewBox="0 0 23 23" fill="none" xmlns="http://www.w3.org/2000/svg">
<path fill-rule="evenodd" clip-rule="evenodd" d="M10.7122 17.7671C10.8303 17.838 10.9566 17.8693 11.0794 17.8678C11.2021 17.8693 11.3284 17.838 11.4465 17.7671L12.4947 17.1382C14.5503 15.9048 17.0644 15.7034 19.2902 16.5937C20.1113 16.9221 21.0044 16.3174 21.0044 15.4331V4.66889C21.0044 4.13529 20.6796 3.65545 20.1841 3.45728C17.3173 2.31055 14.0792 2.57001 11.4316 4.15859L11.0794 4.36994L10.7271 4.15859C8.07947 2.57001 4.84141 2.31055 1.9746 3.45728C1.47916 3.65545 1.1543 4.13529 1.1543 4.66889V15.4331C1.1543 16.3174 2.04745 16.9221 2.86853 16.5937C5.09433 15.7034 7.60837 15.9048 9.66401 17.1382L10.7122 17.7671ZM2.53919 4.7232V15.2362C5.12043 14.2686 8.00655 14.5287 10.3765 15.9506L10.3869 15.9569V5.56952L10.0146 5.34613C7.75353 3.9895 4.99168 3.76022 2.53919 4.7232ZM11.7822 15.9506L11.7718 15.9569V5.56952L12.1441 5.34613C14.4052 3.9895 17.167 3.76022 19.6195 4.7232V15.2362C17.0383 14.2686 14.1522 14.5287 11.7822 15.9506Z" fill="white"/>
<path d="M8.56362 18.1421C6.69507 17.0521 4.38451 17.0521 2.51596 18.1421L2.4211 18.1975C2.09077 18.3902 1.97919 18.8141 2.17188 19.1445C2.36458 19.4748 2.78858 19.5864 3.11891 19.3937L3.21377 19.3384C4.65111 18.4999 6.42847 18.4999 7.86581 19.3384L8.86964 19.9239C10.2351 20.7205 11.9236 20.7205 13.2891 19.9239L14.2929 19.3384C15.7302 18.4999 17.5076 18.4999 18.9449 19.3384L19.0398 19.3937C19.3701 19.5864 19.7941 19.4748 19.9868 19.1445C20.1795 18.8141 20.0679 18.3902 19.7376 18.1975L19.6428 18.1421C17.7742 17.0521 15.4636 17.0521 13.5951 18.1421L12.5913 18.7277C11.657 19.2727 10.5017 19.2727 9.56744 18.7277L8.56362 18.1421Z" fill="white"/>
</svg>
