<svg width="16" height="21" viewBox="0 0 16 21" fill="none" xmlns="http://www.w3.org/2000/svg">
<path fill-rule="evenodd" clip-rule="evenodd" d="M8.08652 1.60433C4.58548 1.60433 1.79155 4.34114 1.79155 7.66355C1.79155 9.68256 2.61839 11.4238 4.09334 12.5082C4.41841 12.7472 4.69652 13.1037 4.80303 13.5559C4.89044 13.927 4.99048 14.3793 5.08958 14.8585H11.0835C11.1826 14.3793 11.2826 13.927 11.37 13.5559C11.4765 13.1037 11.7546 12.7472 12.0797 12.5082C13.5546 11.4238 14.3815 9.68256 14.3815 7.66355C14.3815 4.34114 11.5876 1.60433 8.08652 1.60433ZM10.7946 16.3693H5.37845C5.48966 17.0115 5.5769 17.6197 5.60332 18.0563C5.63113 18.5159 5.97469 18.9279 6.48126 19.0374L6.67865 19.08C7.6057 19.2803 8.56733 19.2803 9.49439 19.08L9.69177 19.0374C10.1983 18.9279 10.5419 18.5159 10.5697 18.0563C10.5961 17.6197 10.6834 17.0115 10.7946 16.3693ZM0.280762 7.66355C0.280762 3.45874 3.79994 0.0935364 8.08652 0.0935364C12.3731 0.0935364 15.8923 3.45874 15.8923 7.66355C15.8923 10.1048 14.8815 12.3235 12.9746 13.7254C12.8877 13.7894 12.8513 13.8567 12.8406 13.9023C12.7213 14.4085 12.5761 15.0786 12.4436 15.7584C12.2595 16.7034 12.1097 17.62 12.0778 18.1475C12.0072 19.314 11.149 20.2682 10.0108 20.5141L9.81344 20.5567C8.67611 20.8025 7.49693 20.8025 6.35959 20.5567L6.16221 20.5141C5.02405 20.2682 4.16586 19.314 4.09528 18.1475C4.06336 17.62 3.91349 16.7034 3.72939 15.7584C3.59695 15.0786 3.45171 14.4085 3.33247 13.9023C3.32174 13.8567 3.28538 13.7894 3.19841 13.7254C1.29155 12.3235 0.280762 10.1048 0.280762 7.66355Z" fill="white"/>
</svg>
