<svg width="32" height="32" viewBox="0 0 32 32" fill="none" xmlns="http://www.w3.org/2000/svg">
<g clip-path="url(#clip0_8_5206)">
<path d="M22.0481 16.0913C22.1858 16.0222 22.3016 15.9162 22.3825 15.7851C22.4635 15.654 22.5063 15.503 22.5063 15.3489C22.5063 15.1949 22.4635 15.0438 22.3825 14.9127C22.3016 14.7817 22.1858 14.6757 22.0481 14.6066L10.4234 8.79431C10.2793 8.72219 10.1173 8.69358 9.95719 8.71196C9.79707 8.73035 9.64576 8.79493 9.52172 8.89785C9.39768 9.00076 9.30628 9.13754 9.25865 9.29152C9.21103 9.44549 9.20924 9.61 9.25351 9.76497L10.4401 13.9166C10.4897 14.0901 10.5945 14.2428 10.7386 14.3514C10.8828 14.46 11.0584 14.5187 11.2388 14.5186H15.0343C15.2545 14.5186 15.4657 14.6061 15.6214 14.7618C15.7771 14.9175 15.8646 15.1287 15.8646 15.3489C15.8646 15.5692 15.7771 15.7804 15.6214 15.9361C15.4657 16.0918 15.2545 16.1793 15.0343 16.1793H11.2388C11.0584 16.1792 10.8828 16.2379 10.7386 16.3465C10.5945 16.4551 10.4897 16.6077 10.4401 16.7813L9.25434 20.9329C9.20998 21.0878 9.21166 21.2523 9.25917 21.4063C9.30669 21.5603 9.39798 21.6971 9.52192 21.8001C9.64586 21.9031 9.7971 21.9678 9.95718 21.9863C10.1173 22.0048 10.2793 21.9764 10.4234 21.9044L22.0481 16.0913Z" stroke="#C5C5D1" stroke-width="1.38388"/>
</g>
<defs>
<clipPath id="clip0_8_5206">
<rect x="15.6567" width="22.1421" height="22.1421" rx="2.76777" transform="rotate(45 15.6567 0)" fill="white"/>
</clipPath>
</defs>
</svg>
