<svg width="25" height="25" viewBox="0 0 25 25" fill="none" xmlns="http://www.w3.org/2000/svg">
<path fill-rule="evenodd" clip-rule="evenodd" d="M10.0106 2.8109C11.5812 2.63213 13.167 2.63213 14.7376 2.8109L16.3444 2.99378C16.5746 3.01998 16.78 3.15032 16.9017 3.34739C17.0234 3.54447 17.048 3.78649 16.9684 4.00401L14.75 10.0639H17.1223C17.3701 10.0639 17.6022 10.1854 17.7433 10.3891C17.8844 10.5928 17.9166 10.8528 17.8295 11.0848L17.6377 11.5957C16.307 15.14 14.4256 18.4522 12.0629 21.4104L11.6694 21.9031C11.4691 22.1538 11.1323 22.2507 10.8294 22.1446C10.5265 22.0385 10.3238 21.7526 10.3238 21.4316V14.2278H8.48922C8.0979 14.2278 7.77137 13.9289 7.73678 13.5391L7.61327 12.1474C7.4043 9.79266 7.4043 7.42403 7.61327 5.06928L7.73678 3.67756C7.7685 3.32014 8.04727 3.03436 8.40379 2.99378L10.0106 2.8109ZM14.5668 4.31199C13.1097 4.14615 11.6385 4.14615 10.1814 4.31199L9.18716 4.42516L9.11815 5.20283C8.91706 7.46872 8.91706 9.74797 9.11815 12.0139L9.18054 12.717H11.0791C11.4963 12.717 11.8345 13.0552 11.8345 13.4724V19.2181C13.5489 16.859 14.958 14.2908 16.0272 11.5747H13.6691C13.4224 11.5747 13.1912 11.4542 13.0499 11.252C12.9086 11.0497 12.8749 10.7913 12.9597 10.5596L15.2196 4.3863L14.5668 4.31199Z" fill="white"/>
</svg>
