<svg width="25" height="25" viewBox="0 0 25 25" fill="none" xmlns="http://www.w3.org/2000/svg">
<path fill-rule="evenodd" clip-rule="evenodd" d="M3.55 8.92058C3.90687 4.59104 7.52487 1.259 11.8691 1.259H12.3041C16.6484 1.259 20.2663 4.59104 20.6232 8.92058C20.8149 11.2463 20.0965 13.5557 18.6193 15.3623L13.7918 21.2663C12.9105 22.3441 11.2628 22.3441 10.3815 21.2663L5.55391 15.3623C4.0767 13.5557 3.35829 11.2463 3.55 8.92058ZM11.8691 2.76979C8.31113 2.76979 5.34797 5.49876 5.05568 9.04469C4.89613 10.9804 5.49404 12.9024 6.72349 14.406L11.551 20.3099C11.8278 20.6485 12.3454 20.6485 12.6222 20.3099L17.4497 14.406C18.6792 12.9024 19.2771 10.9804 19.1175 9.04469C18.8253 5.49876 15.8621 2.76979 12.3041 2.76979H11.8691Z" fill="white"/>
<path d="M13.0938 16.1151C13.0938 16.6714 12.6429 17.1223 12.0866 17.1223C11.5304 17.1223 11.0794 16.6714 11.0794 16.1151C11.0794 15.5589 11.5304 15.1079 12.0866 15.1079C12.6429 15.1079 13.0938 15.5589 13.0938 16.1151Z" fill="white"/>
<path fill-rule="evenodd" clip-rule="evenodd" d="M12.0866 7.80577C11.1331 7.80577 10.324 8.60691 10.324 9.6403C10.324 10.0575 9.98582 10.3957 9.56862 10.3957C9.15143 10.3957 8.81323 10.0575 8.81323 9.6403C8.81323 7.81293 10.2589 6.29497 12.0866 6.29497C13.9144 6.29497 15.36 7.81293 15.36 9.6403C15.36 11.0816 14.4654 12.3229 13.1925 12.7897C13.0672 12.8357 12.9652 12.906 12.9037 12.9745C12.8461 13.0386 12.842 13.0778 12.842 13.0935C12.842 13.5107 12.5038 13.8489 12.0866 13.8489C11.6694 13.8489 11.3312 13.5107 11.3312 13.0935C11.3312 12.1633 12.08 11.5885 12.6723 11.3713C13.3487 11.1232 13.8492 10.4494 13.8492 9.6403C13.8492 8.60691 13.0401 7.80577 12.0866 7.80577Z" fill="white"/>
</svg>
