<svg width="33" height="32" viewBox="0 0 33 32" fill="none" xmlns="http://www.w3.org/2000/svg">
<rect x="0.0236816" width="32.0629" height="32" rx="5" fill="#2B2C2F"/>
<path d="M24.9126 26V23.8889C24.9126 22.7691 24.4677 21.6952 23.6759 20.9033C22.8841 20.1115 21.8102 19.6667 20.6903 19.6667H12.2459C11.1261 19.6667 10.0522 20.1115 9.26034 20.9033C8.46852 21.6952 8.02368 22.7691 8.02368 23.8889V26" stroke="white" stroke-width="1.58333" stroke-linecap="round" stroke-linejoin="round"/>
<path d="M16.4683 15.4444C18.8002 15.4444 20.6905 13.5541 20.6905 11.2222C20.6905 8.89035 18.8002 7 16.4683 7C14.1364 7 12.2461 8.89035 12.2461 11.2222C12.2461 13.5541 14.1364 15.4444 16.4683 15.4444Z" stroke="white" stroke-width="1.58333" stroke-linecap="round" stroke-linejoin="round"/>
</svg>
